<?xml version="1.0" encoding="UTF-8" standalone="no"?>
<!-- Created with Inkscape (http://www.inkscape.org/) -->

<svg
   width="2560"
   height="1440"
   viewBox="0 0 25600 14400"
   version="1.1"
   id="svg1"
   inkscape:version="1.3.2 (091e20e, 2023-11-25)"
   sodipodi:docname="Entwurf-Code-Window-2.svg"
   xmlns:inkscape="http://www.inkscape.org/namespaces/inkscape"
   xmlns:sodipodi="http://sodipodi.sourceforge.net/DTD/sodipodi-0.dtd"
   xmlns="http://www.w3.org/2000/svg"
   xmlns:svg="http://www.w3.org/2000/svg">
  <sodipodi:namedview
     id="namedview1"
     pagecolor="#ffffff"
     bordercolor="#000000"
     borderopacity="0.25"
     inkscape:showpageshadow="2"
     inkscape:pageopacity="0.0"
     inkscape:pagecheckerboard="0"
     inkscape:deskcolor="#d1d1d1"
     inkscape:document-units="mm"
     inkscape:zoom="0.5"
     inkscape:cx="-5"
     inkscape:cy="1233"
     inkscape:window-width="2560"
     inkscape:window-height="1403"
     inkscape:window-x="0"
     inkscape:window-y="0"
     inkscape:window-maximized="1"
     inkscape:current-layer="layer1"
     showgrid="false" />
  <defs
     id="defs1">
    <mask
       maskUnits="userSpaceOnUse"
       id="mask19">
      <rect
         style="fill:#ffffff;fill-opacity:0.761506;stroke:none;stroke-width:1"
         id="rect20"
         width="7470"
         height="3150"
         x="3900"
         y="-460" />
    </mask>
    <mask
       maskUnits="userSpaceOnUse"
       id="mask28">
      <rect
         style="fill:#ffffff;fill-opacity:0.761506;stroke:none;stroke-width:1"
         id="rect29"
         width="7470"
         height="3390"
         x="3900"
         y="6080" />
    </mask>
    <mask
       maskUnits="userSpaceOnUse"
       id="mask2">
      <g
         id="g3"
         transform="translate(-7310.5418,-5391.2908)">
        <rect
           style="fill:#ffffff;fill-opacity:0.761506;stroke:none;stroke-width:1"
           id="rect3"
           width="7470"
           height="3390"
           x="11210.542"
           y="11471.291" />
      </g>
    </mask>
    <mask
       maskUnits="userSpaceOnUse"
       id="mask3">
      <g
         id="g4"
         transform="translate(-7310.5418,-5391.2908)">
        <rect
           style="fill:#ffffff;fill-opacity:0.761506;stroke:none;stroke-width:1"
           id="rect4"
           width="7470"
           height="3390"
           x="11210.542"
           y="11471.291" />
      </g>
    </mask>
    <mask
       maskUnits="userSpaceOnUse"
       id="mask4">
      <g
         id="g5"
         transform="translate(-7310.5418,-5391.2908)">
        <rect
           style="fill:#ffffff;fill-opacity:0.761506;stroke:none;stroke-width:1"
           id="rect5"
           width="7470"
           height="3390"
           x="11210.542"
           y="11471.291" />
      </g>
    </mask>
    <mask
       maskUnits="userSpaceOnUse"
       id="mask6">
      <g
         id="g7"
         transform="translate(-7310.5388,-5391.2946)">
        <rect
           style="fill:#ffffff;fill-opacity:0.761506;stroke:none;stroke-width:1"
           id="rect7"
           width="7470"
           height="3150"
           x="11210.539"
           y="4931.2944" />
      </g>
    </mask>
    <mask
       maskUnits="userSpaceOnUse"
       id="mask7">
      <g
         id="g10"
         transform="translate(-7310.5388,-5391.2946)">
        <rect
           style="fill:#ffffff;fill-opacity:0.761506;stroke:none;stroke-width:1"
           id="rect10"
           width="7470"
           height="3150"
           x="11210.539"
           y="4931.2944" />
      </g>
    </mask>
    <mask
       maskUnits="userSpaceOnUse"
       id="mask10">
      <g
         id="g11"
         transform="translate(-7310.5388,-5391.2946)">
        <rect
           style="fill:#ffffff;fill-opacity:0.761506;stroke:none;stroke-width:1"
           id="rect11"
           width="7470"
           height="3150"
           x="11210.539"
           y="4931.2944" />
      </g>
    </mask>
    <mask
       maskUnits="userSpaceOnUse"
       id="mask12">
      <g
         id="g13"
         transform="translate(-7310.5418,-5391.2908)">
        <rect
           style="fill:#ffffff;fill-opacity:0.761506;stroke:none;stroke-width:1"
           id="rect12"
           width="7470"
           height="3390"
           x="11210.542"
           y="8081.291" />
      </g>
    </mask>
    <mask
       maskUnits="userSpaceOnUse"
       id="mask13">
      <g
         id="g14"
         transform="translate(-7310.5418,-5391.2908)">
        <rect
           style="fill:#ffffff;fill-opacity:0.761506;stroke:none;stroke-width:1"
           id="rect13"
           width="7470"
           height="3390"
           x="11210.542"
           y="8081.291" />
      </g>
    </mask>
    <mask
       maskUnits="userSpaceOnUse"
       id="mask14">
      <g
         id="g15"
         transform="translate(-7310.5418,-5391.2908)">
        <rect
           style="fill:#ffffff;fill-opacity:0.761506;stroke:none;stroke-width:1"
           id="rect14"
           width="7470"
           height="3390"
           x="11210.542"
           y="8081.291" />
      </g>
    </mask>
  </defs>
  <g
     inkscape:label="Ebene 1"
     inkscape:groupmode="layer"
     id="layer1">
    <rect
       style="fill:#000000;stroke:#000000;stroke-width:0.958464"
       id="rect1"
       width="25539.844"
       height="13259.729"
       x="60.174385"
       y="-0.020768492"
       rx="0"
       ry="0" />
    <path
       id="rect2"
       style="fill:#ffffff;fill-opacity:1;stroke:none;stroke-width:29.4066;stroke-linecap:round"
       d="m 3666.6546,7519.1629 c -153.7667,0 -277.5242,151.99 -287.6953,344.961 h -1.9532 v 24.961 369.902 h 199.5118 v -165.449 h 5800 v 165.449 h 199.4922 v -369.902 -24.961 h -1.9531 c -10.1712,-192.971 -133.9287,-344.961 -287.6953,-344.961 z"
       inkscape:export-filename="Code-Window-head.png"
       inkscape:export-xdpi="96"
       inkscape:export-ydpi="96" />
    <path
       id="rect6"
       style="fill:#ffffff;fill-opacity:1;stroke:none;stroke-width:40.252;stroke-linecap:round"
       d="m 3377.0061,8258.9869 v 3390.0001 h 199.5118 V 8258.9869 Z m 5999.5118,0 v 3390.0001 h 199.4922 V 8258.9869 Z"
       inkscape:export-filename="Code-Window-center.png"
       inkscape:export-xdpi="96"
       inkscape:export-ydpi="96" />
    <path
       id="rect9"
       style="fill:#ffffff;fill-opacity:1;stroke:none;stroke-width:40.252;stroke-linecap:round"
       d="m 3377.0061,11648.987 v 286.504 h 6199.004 v -286.504 h -199.4922 v 184.551 h -5800 v -184.551 z"
       inkscape:export-filename="Code-Window-foot.png"
       inkscape:export-xdpi="96"
       inkscape:export-ydpi="96" />
    <path
       style="fill:#ffffff;fill-opacity:0.761506;stroke-width:1"
       id="path37"
       sodipodi:type="arc"
       sodipodi:cx="15348.274"
       sodipodi:cy="4839.4668"
       sodipodi:rx="3184.3215"
       sodipodi:ry="1544.63"
       sodipodi:start="5.2521264"
       sodipodi:end="2.0981017"
       sodipodi:open="true"
       sodipodi:arc-type="arc"
       d="m 16984.732,3514.4157 a 3184.3215,1544.63 0 0 1 1105.312,2110.6012 3184.3215,1544.63 0 0 1 -4344.141,549.2669" />
    <path
       id="path9"
       style="fill:#ffffff;stroke:none;stroke-width:0.999996;fill-opacity:0.36192468"
       d="M 17198.691 1699.0039 C 16778.375 1699.0039 16440 2028.9622 16440 2438.8281 L 16440 3448.6133 L 16440 5358.1641 L 16440 6098.0078 L 17198.691 6098.0078 L 21880.312 6098.0078 L 22639.004 6098.0078 L 22639.004 5358.1641 L 22639.004 3448.6133 L 22639.004 2438.8281 C 22639.004 2028.9622 22300.629 1699.0039 21880.312 1699.0039 L 17198.691 1699.0039 z M 17244.219 1769.0039 L 21774.785 1769.0039 C 22181.541 1769.0039 22509.004 2083.964 22509.004 2475.1953 L 22509.004 3439.0625 L 22509.004 5261.7969 L 22509.004 5968.0078 L 21774.785 5968.0078 L 17244.219 5968.0078 L 16510 5968.0078 L 16510 5261.7969 L 16510 3439.0625 L 16510 2475.1953 C 16510 2083.9639 16837.463 1769.0039 17244.219 1769.0039 z " />
    <path
       id="rect8"
       style="fill:#ffffff;stroke:none;stroke-width:0.999996;fill-opacity:0.76150626"
       d="M 17244.219 1769.0039 C 16837.463 1769.0039 16510 2083.9639 16510 2475.1953 L 16510 3439.0625 L 16510 5261.7969 L 16510 5968.0078 L 17244.219 5968.0078 L 21774.785 5968.0078 L 22509.004 5968.0078 L 22509.004 5261.7969 L 22509.004 3439.0625 L 22509.004 2475.1953 C 22509.004 2083.964 22181.541 1769.0039 21774.785 1769.0039 L 17244.219 1769.0039 z M 17319.746 1869.0039 L 21699.258 1869.0039 C 22092.452 1869.0039 22409.004 2168.9657 22409.004 2541.5625 L 22409.004 3459.5117 L 22409.004 5195.4492 L 22409.004 5868.0078 L 21699.258 5868.0078 L 17319.746 5868.0078 L 16610 5868.0078 L 16610 5195.4492 L 16610 3459.5117 L 16610 2541.5625 C 16610 2168.9657 16926.551 1869.0039 17319.746 1869.0039 z " />
    <path
       id="path10"
       style="fill:#ffffff;stroke:none;stroke-width:0.999989;fill-opacity:0.59205019"
       d="M 17319.739,1869 C 16926.544,1869 16610,2168.9618 16610,2541.559 V 3459.5113 5195.4409 5868 h 709.739 4379.522 H 22409 V 5195.4409 3459.5113 2541.559 c 0,-372.5972 -316.544,-672.5589 -709.739,-672.5589 z" />
    <text
       xml:space="preserve"
       style="font-style:normal;font-variant:normal;font-weight:normal;font-stretch:normal;font-size:594.948px;font-family:FreeMono;-inkscape-font-specification:FreeMono;text-align:start;letter-spacing:0px;text-anchor:start;fill:#000000;stroke:none;stroke-width:1"
       x="16858.195"
       y="2630.4583"
       id="text1"
       transform="scale(1.0000625,0.9999375)"><tspan
         sodipodi:role="line"
         style="text-align:start;text-anchor:start;fill:#000000;stroke:none;stroke-width:1"
         x="16858.195"
         y="2630.4583"
         id="tspan2">REPEAT 999999 [</tspan><tspan
         sodipodi:role="line"
         style="text-align:start;text-anchor:start;fill:#000000;stroke:none;stroke-width:1"
         x="16858.195"
         y="3374.1433"
         id="tspan3"> RT # * 0.0001</tspan><tspan
         sodipodi:role="line"
         style="text-align:start;text-anchor:start;fill:#000000;stroke:none;stroke-width:1"
         x="16858.195"
         y="4117.8286"
         id="tspan4"> FD 123</tspan><tspan
         sodipodi:role="line"
         style="text-align:start;text-anchor:start;fill:#000000;stroke:none;stroke-width:1"
         x="16858.195"
         y="4861.5137"
         id="tspan5">]</tspan></text>
    <g
       id="g31"
       mask="url(#mask19)"
       transform="translate(-713.95032,1152.6536)">
      <path
         id="path29"
         style="fill:#ffffff;fill-opacity:0.361925;stroke:none;stroke-width:0.999996"
         d="m 5318.691,1967.5054 c -420.316,0 -758.691,329.9583 -758.691,739.8242 v 1009.7852 1909.5508 739.8437 h 758.691 4681.621 758.692 V 5626.6656 3717.1148 2707.3296 c 0,-409.8659 -338.375,-739.8242 -758.692,-739.8242 z m 45.528,70 h 4530.566 c 406.756,0 734.219,314.9601 734.219,706.1914 v 963.8672 1822.7344 706.2109 H 9894.785 5364.219 4630 V 5530.2984 3707.564 2743.6968 c 0,-391.2314 327.463,-706.1914 734.219,-706.1914 z" />
      <path
         id="path30"
         style="fill:#ffffff;fill-opacity:0.761506;stroke:none;stroke-width:0.999996"
         d="m 5364.219,2037.5054 c -406.756,0 -734.219,314.96 -734.219,706.1914 v 963.8672 1822.7344 706.2109 h 734.219 4530.566 734.219 V 5530.2984 3707.564 2743.6968 c 0,-391.2313 -327.463,-706.1914 -734.219,-706.1914 z m 75.527,100 h 4379.512 c 393.194,0 709.746,299.9618 709.746,672.5586 v 917.9492 1735.9375 672.5586 H 9819.258 5439.746 4730 V 5463.9507 3728.0132 2810.064 c 0,-372.5968 316.551,-672.5586 709.746,-672.5586 z" />
      <path
         id="path31"
         style="fill:#ffffff;fill-opacity:0.59205;stroke:none;stroke-width:0.999989"
         d="m 5439.739,2137.5015 c -393.195,0 -709.739,299.9618 -709.739,672.559 v 917.9523 1735.9296 672.5591 H 5439.739 9819.261 10529 V 5463.9424 3728.0128 2810.0605 c 0,-372.5972 -316.544,-672.5589 -709.739,-672.5589 z" />
    </g>
    <g
       id="g34"
       mask="url(#mask28)"
       transform="translate(-713.95032,-2237.3464)">
      <path
         id="path32"
         style="fill:#ffffff;fill-opacity:0.361925;stroke:none;stroke-width:0.999996"
         d="m 5318.691,1967.5054 c -420.316,0 -758.691,329.9583 -758.691,739.8242 v 1009.7852 1909.5508 739.8437 h 758.691 4681.621 758.692 V 5626.6656 3717.1148 2707.3296 c 0,-409.8659 -338.375,-739.8242 -758.692,-739.8242 z m 45.528,70 h 4530.566 c 406.756,0 734.219,314.9601 734.219,706.1914 v 963.8672 1822.7344 706.2109 H 9894.785 5364.219 4630 V 5530.2984 3707.564 2743.6968 c 0,-391.2314 327.463,-706.1914 734.219,-706.1914 z" />
      <path
         id="path33"
         style="fill:#ffffff;fill-opacity:0.761506;stroke:none;stroke-width:0.999996"
         d="m 5364.219,2037.5054 c -406.756,0 -734.219,314.96 -734.219,706.1914 v 963.8672 1822.7344 706.2109 h 734.219 4530.566 734.219 V 5530.2984 3707.564 2743.6968 c 0,-391.2313 -327.463,-706.1914 -734.219,-706.1914 z m 75.527,100 h 4379.512 c 393.194,0 709.746,299.9618 709.746,672.5586 v 917.9492 1735.9375 672.5586 H 9819.258 5439.746 4730 V 5463.9507 3728.0132 2810.064 c 0,-372.5968 316.551,-672.5586 709.746,-672.5586 z" />
      <path
         id="path34"
         style="fill:#ffffff;fill-opacity:0.59205;stroke:none;stroke-width:0.999989"
         d="m 5439.739,2137.5015 c -393.195,0 -709.739,299.9618 -709.739,672.559 v 917.9523 1735.9296 672.5591 H 5439.739 9819.261 10529 V 5463.9424 3728.0128 2810.0605 c 0,-372.5972 -316.544,-672.5589 -709.739,-672.5589 z" />
    </g>
  </g>
</svg>
