<?xml version="1.0" encoding="UTF-8" standalone="no"?>
<!-- Created with Inkscape (http://www.inkscape.org/) -->

<svg
   width="97.136772mm"
   height="93.013489mm"
   viewBox="0 0 97.136772 93.013489"
   version="1.1"
   id="svg1"
   inkscape:version="1.3.2 (091e20e, 2023-11-25)"
   sodipodi:docname="turtle.svg"
   xmlns:inkscape="http://www.inkscape.org/namespaces/inkscape"
   xmlns:sodipodi="http://sodipodi.sourceforge.net/DTD/sodipodi-0.dtd"
   xmlns="http://www.w3.org/2000/svg"
   xmlns:svg="http://www.w3.org/2000/svg">
  <sodipodi:namedview
     id="namedview1"
     pagecolor="#ffffff"
     bordercolor="#666666"
     borderopacity="1.0"
     inkscape:showpageshadow="2"
     inkscape:pageopacity="0.0"
     inkscape:pagecheckerboard="0"
     inkscape:deskcolor="#d1d1d1"
     inkscape:document-units="mm"
     showgrid="false"
     showguides="true"
     inkscape:zoom="2.9858596"
     inkscape:cx="201.11462"
     inkscape:cy="176.33113"
     inkscape:window-width="2560"
     inkscape:window-height="1403"
     inkscape:window-x="0"
     inkscape:window-y="0"
     inkscape:window-maximized="1"
     inkscape:current-layer="layer1">
    <inkscape:grid
       id="grid1"
       units="px"
       originx="-49.560547"
       originy="-21.69945"
       spacingx="0.26458333"
       spacingy="0.26458334"
       empcolor="#0099e5"
       empopacity="0.30196078"
       color="#0099e5"
       opacity="0.14901961"
       empspacing="5"
       dotted="false"
       gridanglex="30"
       gridanglez="30"
       visible="false" />
  </sodipodi:namedview>
  <defs
     id="defs1" />
  <g
     inkscape:label="Layer 1"
     inkscape:groupmode="layer"
     id="layer1"
     transform="translate(-49.560547,-21.699451)">
    <g
       id="g15"
       transform="matrix(-0.90855836,0.41775796,0.41775796,0.90855836,196.25853,1.3917453)" />
    <g
       id="path3"
       style="fill:#aa0000" />
    <g
       id="ellipse3">
      <path
         id="path11"
         style="color:#000000;fill:#d40000;stroke-linecap:round;-inkscape-stroke:none"
         d="m 131.04687,45.542969 c -2.55067,0.0023 -5.04999,0.332974 -7.32812,0.998047 l -3.70703,1.082031 1.91992,3.351562 c 1.63167,2.849127 2.57508,6.19456 2.89258,9.888672 l 0.20898,2.447266 2.4375,0.310547 c 1.17459,0.149977 2.37348,0.225841 3.57813,0.226562 h 0.002 c 3.87881,3e-6 7.41086,-0.723395 10.23828,-2.09375 2.82742,-1.370355 5.40778,-3.675445 5.40821,-7.058594 1.6e-4,-3.383342 -2.58072,-5.68809 -5.40821,-7.058593 -2.82749,-1.370504 -6.35924,-2.093753 -10.23828,-2.09375 h -0.002 z m 0.004,6.085937 h 0.002 c 3.08116,2.88e-4 5.8482,0.643973 7.58204,1.484375 1.73422,0.840591 1.97656,1.591386 1.97656,1.582031 0,-0.0094 -0.24231,0.741499 -1.97656,1.582032 -1.73387,0.840343 -4.50106,1.484087 -7.58204,1.484375 -0.21823,-1.31e-4 -0.42712,-0.03467 -0.64453,-0.04102 -0.32462,-2.001382 -0.82992,-3.931255 -1.52734,-5.800781 0.74851,-0.07791 1.39258,-0.290233 2.16992,-0.291016 z m -4.7e-4,-3.042724 a 12.603862,6.1090441 0 0 0 -6.47919,0.875915 c 1.89025,3.30065 2.93588,7.089708 3.28403,11.140405 a 12.603862,6.1090441 0 0 0 3.19516,0.201539 12.603862,6.1090441 0 0 0 12.60388,-6.108672 12.603862,6.1090441 0 0 0 -12.60388,-6.109187 z M 65.207031,45.542969 c -3.879042,-3e-6 -7.410791,0.723246 -10.238281,2.09375 -2.82749,1.370503 -5.408366,3.67525 -5.408203,7.058593 4.25e-4,3.383149 2.580781,5.688239 5.408203,7.058594 2.827422,1.370355 6.359468,2.093753 10.238281,2.09375 h 0.002 c 1.204449,-7.46e-4 2.403727,-0.07661 3.578125,-0.226562 l 2.435547,-0.310547 0.210938,-2.447266 c 0.317661,-3.69588 1.261467,-7.042614 2.894531,-9.892578 L 76.25,47.615234 72.539062,46.535156 c -2.279348,-0.663201 -4.77963,-0.991626 -7.330078,-0.992187 z m 0,6.085937 c 0.776996,1.71e-4 1.421391,0.211803 2.169922,0.289063 -0.697846,1.870306 -1.204586,3.800467 -1.529297,5.802734 -0.216063,0.0063 -0.423745,0.04086 -0.640625,0.04102 -3.081809,2e-6 -5.849732,-0.643843 -7.583984,-1.484375 -1.734252,-0.840533 -1.976564,-1.591393 -1.976563,-1.582032 10e-7,0.0094 0.242337,-0.74144 1.976563,-1.582031 1.734226,-0.840591 4.50199,-1.484377 7.583984,-1.484375 z m 3.58e-4,-3.042724 a 12.603862,6.1090441 0 0 0 -12.603882,6.109187 12.603862,6.1090441 0 0 0 12.603882,6.108672 12.603862,6.1090441 0 0 0 3.194637,-0.201539 c 0.34832,-4.052589 1.394689,-7.843325 3.286621,-11.145056 A 12.603862,6.1090441 0 0 0 65.207389,48.586182 Z M 98.128894,21.699451 c -2.664719,0 -4.955756,0.577096 -6.740157,1.831929 -1.784401,1.254833 -2.878452,3.162237 -3.287138,5.042586 -0.491849,2.262997 -0.231565,4.501125 0.427364,6.590813 -9.128736,1.781117 -15.486323,6.181595 -19.151802,12.200289 -4.836888,7.942134 -5.016997,18.027554 -2.818433,27.802954 1.294051,5.753694 3.443017,11.434378 6.116939,16.643945 -0.157501,0.06878 -0.317875,0.128298 -0.474389,0.199988 l -0.001,0.001 -0.0036,0.0016 c -3.524319,1.620488 -6.430998,3.753097 -8.427393,6.179467 -1.996395,2.426378 -3.378761,5.598448 -1.965255,8.672348 1.413565,3.07386 4.721073,4.08987 7.86257,4.15375 3.141484,0.0639 6.654427,-0.75502 10.178707,-2.37557 l 0.0015,-10e-4 c 1.154964,-0.53264 2.26109,-1.14339 3.309875,-1.80971 4.54876,4.72545 9.576994,7.8791 14.972213,7.8791 5.719265,0 11.019265,-3.56453 15.779395,-8.76897 0.80513,0.47295 1.64252,0.91076 2.50373,1.30793 l 0.002,5.2e-4 c 3.52427,1.62055 7.03722,2.43996 10.1787,2.37608 3.1415,-0.0639 6.44901,-1.0804 7.86257,-4.15427 1.41351,-3.0739 0.0311,-6.245969 -1.96525,-8.672341 -1.97876,-2.404929 -4.8536,-4.519902 -8.33593,-6.135026 2.40477,-4.893992 4.34389,-10.163458 5.54385,-15.498795 2.19857,-9.7754 2.01999,-19.86082 -2.81688,-27.802954 -3.66759,-6.022143 -10.03068,-10.423746 -19.16782,-12.202873 0.6654,-2.084736 0.93272,-4.318415 0.44906,-6.57996 -0.40276,-1.883269 -1.49607,-3.797418 -3.283,-5.052922 -1.78694,-1.255504 -4.07891,-1.829862 -6.749975,-1.829862 z m 0,6.085933 c 1.80327,0 2.765186,0.380406 3.251996,0.722437 0.4868,0.342029 0.68687,0.667054 0.83199,1.345654 0.21845,1.02145 -0.20022,2.798353 -0.88005,4.53409 -0.73995,-0.04176 -1.497417,-0.06524 -2.266009,-0.07752 -0.306672,-0.01229 -0.617419,-0.02119 -0.937927,-0.02119 -0.316831,0 -0.623953,0.0085 -0.927075,0.02067 -0.781423,0.01234 -1.550869,0.03679 -2.302702,0.07958 -0.666446,-1.729129 -1.07269,-3.49952 -0.850077,-4.523754 0.148349,-0.682551 0.353387,-1.014073 0.841809,-1.35754 0.488419,-0.343469 1.444749,-0.722437 3.238045,-0.722437 z m 0,12.589413 c 0.656029,0 1.285272,0.01796 1.910476,0.03876 1.02816,0.03804 2.02288,0.102431 2.98018,0.195854 l 0.90124,0.08785 c 9.34194,1.070275 14.69699,4.798028 17.76274,9.831958 3.65177,5.996208 4.05965,14.495464 2.07842,23.304521 -1.23267,5.480828 -3.37477,11.027423 -6.02082,16.024345 l -0.20102,0.364836 c -0.18272,0.339961 -0.37656,0.665475 -0.56379,0.999939 -1.72544,3.077277 -3.63237,5.900257 -5.62136,8.340576 -0.26133,0.317482 -0.51817,0.658304 -0.78186,0.960664 l -0.0295,0.0356 c -4.49474,5.14257 -9.27165,8.06721 -12.414746,8.06721 -3.593504,0 -9.322863,-3.82253 -14.32419,-10.412279 C 78.803378,91.62492 74.477576,82.642794 72.49635,73.833736 70.515124,65.024679 70.922474,56.525423 74.574259,50.529215 c 3.054657,-5.015722 8.381623,-8.734971 17.660938,-9.820589 l 0.972034,-0.0956 c 0.973501,-0.09571 1.984812,-0.161552 3.030822,-0.199988 0.619091,-0.02038 1.241557,-0.03824 1.890841,-0.03824 z"
         inkscape:export-filename="turtle.png"
         inkscape:export-xdpi="300"
         inkscape:export-ydpi="300" />
    </g>
    <g
       id="ellipse4"
       transform="rotate(24.693119)" />
  </g>
</svg>
